<?xml version="1.0" encoding="UTF-8"?>
<svg id="Layer_1" xmlns="http://www.w3.org/2000/svg" version="1.1" viewBox="0 0 1024 1024">
  <!-- Generator: Adobe Illustrator 30.3.0, SVG Export Plug-In . SVG Version: 2.1.3 Build 182)  -->
  <path d="M921.2,499.12c0,225.97-183.19,409.16-409.16,409.16S102.88,725.09,102.88,499.12,286.07,89.97,512.04,89.97s409.16,183.19,409.16,409.16ZM647.96,685.48l45.99,89.91.06-544.16-31.05.02c-.05-2.7.12-4.63.59-6.35l30.46-.03v-80.94c-48.54-25.43-102.1-39.95-157.02-42.33-34.3-1.76-67.81-.1-101.39,7.15-4.7,1.01-8.42,7.7-8.41,12.53l.21,118.86,17.44,37,23.29,47.77,34.03,68.98,50.6,102.2,9.38,18.99,85.82,170.4ZM330.69,750.69c22.54-14.99,38.94-36.16,48.65-61.35,6.84-17.75,11.2-35.76,12.23-54.7l1.36-24.9-.42-354.62-.29-116.04c-.02-6.88-3.56-13.35-9.5-15.6-1.56-.59-5.21-.2-6.78.36-18.51,6.59-35.77,13.79-53.18,23-38.34,20.28-72.18,46.37-102,77.92-22.7,24.01-41.65,50.45-57.56,79.46-30.23,55.13-46.77,115.83-49.63,178.55-3.02,66.19,9.71,129.56,38.85,188.74,14.14,28.73,30.96,55.04,51.76,79.18,38.99,24.09,88.32,25.4,126.52,0ZM802.59,224.41c-21.34-23.44-43.82-41.22-68.65-58.17l.02,58.33,68.63-.16ZM886.32,636.86c19.48-53.64,27.16-103.34,23.78-159.99-2.8-47.08-13.55-92.68-31.73-136.2-17.12-40.34-40.06-77.13-69.32-109.65l-75.04.06-.04,161-.3,287.85.1,151.61c70.16-48.19,122.41-115.41,152.55-194.67ZM325.44,852.56c49.75,26.43,104.21,41.71,160.37,45.47l43.74.58c56.61-2.71,111.74-16.62,162.72-42.71l-54.46-104.85-93.93-185.97-115.42-230.5c-1.18-.91-1.56.03-1.01,1.42l.07,270.8-.99,24.97c-1.29,32.41-13.66,62.5-34.06,87.63l-14.41,15.69c-35.03,32.21-80.49,46.92-127.75,39.72-14.15-2.16-25.64-7.47-38.69-14.27,30.39,35.8,73.32,70.51,113.81,92.02Z"/>
</svg>