<?xml version="1.0" encoding="UTF-8"?>
<svg id="Layer_1" xmlns="http://www.w3.org/2000/svg" version="1.1" viewBox="0 0 1024 1024">
  <!-- Generator: Adobe Illustrator 30.3.0, SVG Export Plug-In . SVG Version: 2.1.3 Build 182)  -->
  <defs>
    <style>
      .st0 {
        fill: #fff;
      }
    </style>
  </defs>
  <path class="st0" d="M0,0h1024v1024H0V0ZM921.19,499.12c0-225.96-183.18-409.14-409.14-409.14-225.96,0-409.14,183.18-409.14,409.14s183.18,409.14,409.14,409.14,409.14-183.18,409.14-409.14Z"/>
  <g>
    <path class="st0" d="M381.75,682.75c-18.78,56.73-71.09,94.55-131.43,85.02-16.95-2.67-32.42-8.23-46.57-17.44-62.94-74.61-94.98-170.13-90.27-267.62,3.98-82.41,31.49-161.9,81.61-227.69,46.14-60.57,111.37-108.34,184.08-132.16,7.26.41,11.76,6.23,12.94,13.26l.38,70.81.27,406.89c.02,23.94-3.65,46.71-11.01,68.93Z"/>
    <path class="st0" d="M694,231.26l-.06,544.27-142.48-281.93-50.98-103.13-73.09-149.88-.2-119.24c0-5.74,3.81-10.59,8.38-12.8,36.01-7.39,71.64-8.95,108.53-6.61,52.56,3.34,103.29,17.61,149.91,41.93v80.98s-30.45.04-30.45.04c-.48,1.71-.65,3.67-.61,6.33l31.05.02Z"/>
    <path class="st0" d="M243.77,793.85c-12.06-11.18-22.51-21.49-33.09-34.48,12.01,7.5,24.36,12.85,38.78,15.24,89.09,14.79,172.14-52.85,177.15-143.78l.91-25.25-.08-272.99,147.67,294.17,57.35,113.73,59.82,115.48c-115.26,58.53-252.24,57.11-366.39-3.13-29.91-15.78-56.58-35.99-82.13-58.99Z"/>
    <g>
      <path d="M921.19,499.12c0,225.96-183.18,409.14-409.14,409.14S102.9,725.09,102.9,499.12,286.08,89.98,512.04,89.98c225.96,0,409.14,183.18,409.14,409.14ZM694,231.26l-31.05-.02c-.04-2.67.13-4.62.61-6.33l30.44-.04v-80.98c-46.62-24.32-97.35-38.59-149.91-41.93-36.89-2.35-72.51-.78-108.53,6.61-4.57,2.2-8.39,7.06-8.38,12.8l.2,119.24,73.09,149.88,50.98,103.13,142.48,281.93.06-544.27ZM381.75,682.75c7.35-22.22,11.02-44.99,11.01-68.93l-.27-406.89-.38-70.81c-1.18-7.04-5.68-12.85-12.94-13.26-72.71,23.82-137.93,71.6-184.08,132.16-50.12,65.79-77.63,145.28-81.61,227.69-4.71,97.48,27.33,193,90.27,267.62,14.15,9.21,29.62,14.77,46.57,17.44,60.35,9.52,112.66-28.3,131.43-85.02ZM803.02,224.56c-21.08-22.56-44.16-41.65-69.08-58.32l.03,58.34,69.05-.03ZM889.22,628.78c16.05-46.75,23.72-94.6,21.31-143.39-2.71-67.33-21.39-132.51-55.11-190.75-13.45-22.98-28.69-43.94-46.35-63.66l-75.06.1-.38,472.77.13,127.67c72.37-49.63,126.25-120.31,155.46-202.75ZM243.77,793.85c25.55,22.99,52.22,43.21,82.13,58.99,114.15,60.24,251.13,61.66,366.39,3.13l-59.82-115.48-57.35-113.73-147.67-294.17.08,272.99-.91,25.25c-5.01,90.93-88.06,158.57-177.15,143.78-14.42-2.39-26.77-7.73-38.78-15.24,10.58,12.99,21.04,23.3,33.09,34.48Z"/>
      <path class="st0" d="M889.22,628.78c-29.21,82.44-83.08,153.12-155.46,202.75l-.13-127.67.38-472.77,75.06-.1c17.66,19.72,32.9,40.67,46.35,63.66,33.72,58.24,52.4,123.42,55.11,190.75,2.41,48.78-5.26,96.64-21.31,143.39Z"/>
      <path class="st0" d="M803.02,224.56l-69.05.03-.03-58.34c24.92,16.67,48,35.75,69.08,58.32Z"/>
    </g>
  </g>
</svg>